<svg xmlns="http://www.w3.org/2000/svg" version="1.1" xmlns:xlink="http://www.w3.org/1999/xlink" width="2000" height="1500" viewBox="0 0 2000 1500"><rect width="2000" height="1500" x="0" y="0" id="background" stroke="transparent" fill="#ffffff"></rect><svg xml:space="preserve" width="1500" height="1125" data-version="2" data-id="lg_PQ2Xfx1TTdMPkWofms" viewBox="0 0 560 329" x="250" y="187.5"><rect width="100%" height="100%" fill="transparent"></rect><path fill="#fe4d01" d="m152.485 179.95-2.47-7.6h-55.86l-2.47 7.6q-2.83 7.6.35 12.63 3.18 5.04 13.44 5.04h10.07v65.58H5.425v-65.58h7.25q12.72 0 17.06-5.04 4.33-5.03 8.39-14.76l36.24-89.43q3.89-10.26 1.32-15.12-2.56-4.86-15.46-4.86h-3.72V2.83h181.71v65.58h-3.53q-13.08 0-15.65 5.13-2.56 5.12 1.51 14.85l36.23 89.43q2.12 4.95 3.8 8.58 1.68 3.62 4.15 6.18 2.48 2.57 6.63 3.8 4.16 1.24 10.7 1.24h7.24v65.58h-160.67v-65.58h9.72q10.08 0 13.53-5.04 3.44-5.03.61-12.63m-30.75-89.44-18.56 54.26h37.65l-17.68-54.26z" paint-order="stroke"></path><rect width="283.87" height="260.37" x="-141.94" y="-130.19" fill="none" rx="0" ry="0" transform="translate(147.86 133.51)"></rect><path fill="#fe4d01" d="M546.335 67.7q0 56.57-58.86 61.87v1.94q30.75.71 48.43 16.8 17.67 16.08 17.67 46.48 0 12.73-3 25.01-3.01 12.29-12.99 21.83-9.99 9.55-28.81 15.56-18.83 6.01-50.65 6.01h-194.43v-65.58q15.56 0 22.27-4.15 6.72-4.16 6.72-15.65V88.39q0-11.67-6.72-15.82-6.71-4.16-22.27-4.16V2.83h206.63q24.39 0 39.42 5.48 15.02 5.48 23.15 14.5 8.13 9.01 10.79 20.77 2.65 11.75 2.65 24.12m-149.36 129.92h26.33q14.85 0 20.51-5.74 5.65-5.75 5.65-19.18t-5.65-19.53q-5.66-6.1-20.51-6.1h-26.33zm0-129.21v47.37h26.69q10.96 0 15.82-6.98 4.86-6.98 4.86-16.88 0-9.37-4.86-16.44-4.86-7.07-15.82-7.07z" paint-order="stroke"></path><rect width="289.88" height="260.37" x="-144.94" y="-130.19" fill="none" rx="0" ry="0" transform="translate(409.13 133.51)"></rect><path fill="#fe4d01" d="m154.875 323.19-.77-5.01h-2.86l-.69 5.01h1.53v1.6h-4.59v-1.6h1.35l2.6-16.27h-1.91v-1.59h4.15l2.93 17.86h1.3v1.6h-4.59v-1.6zm-2.24-14.98-1.19 8.46h2.44z"></path><rect width="10.42" height="19.46" x="-5.21" y="-9.73" fill="none" rx="0" ry="0" transform="translate(153.2 315.56)"></rect><path fill="#fe4d01" d="M166.265 306.92v-1.59h4.32l3.02 15.98 2.96-15.98h4.34v1.59h-1.74v16.27h1.74v1.6h-4.95v-1.6h1.5v-14.67l-3.13 16.27h-1.49l-3.13-16.33v14.73h1.52v1.6h-4.96v-1.6h1.73v-16.27z"></path><rect width="14.64" height="19.46" x="-7.32" y="-9.73" fill="none" rx="0" ry="0" transform="translate(174.09 315.56)"></rect><path fill="#fe4d01" d="m196.625 323.19-.77-5.01h-2.86l-.69 5.01h1.53v1.6h-4.59v-1.6h1.35l2.6-16.27h-1.91v-1.59h4.15l2.93 17.86h1.3v1.6h-4.58v-1.6zm-2.24-14.98-1.19 8.46h2.44z"></path><rect width="10.42" height="19.46" x="-5.21" y="-9.73" fill="none" rx="0" ry="0" transform="translate(194.96 315.56)"></rect><path fill="#fe4d01" d="M208.015 306.92v-1.59h3.39l4.84 14.45v-12.86h-1.77v-1.59h5.26v1.59h-1.75v17.87h-1.62l-4.85-14.39v12.79h1.74v1.6h-5.24v-1.6h1.73v-16.27z"></path><rect width="11.72" height="19.46" x="-5.86" y="-9.73" fill="none" rx="0" ry="0" transform="translate(214.38 315.56)"></rect><path fill="#fe4d01" d="M240.665 306.92v-1.59h5.31q.33 0 .72.07.39.06.77.25t.73.53q.36.34.63.89.27.54.43 1.32.16.78.16 1.84 0 .95-.13 1.65-.14.7-.4 1.21-.26.5-.64.82-.38.33-.88.5 1.33.2 1.98 1.5.65 1.3.65 3.51 0 1.7-.32 2.75-.33 1.05-.86 1.63-.53.59-1.21.79-.68.2-1.4.2h-5.54v-1.6h1.62v-16.27zm7.48 12.47q0-1.1-.14-1.88-.14-.78-.41-1.27-.27-.5-.64-.73-.37-.24-.81-.24h-2.09v7.92h2.15q.47 0 .83-.21.36-.2.61-.66.24-.46.37-1.18.13-.73.13-1.75m-.37-9.13q0-.62-.08-1.22-.09-.61-.3-1.07-.2-.47-.55-.76-.34-.29-.87-.29h-1.92v6.8h1.92q.5 0 .84-.28.35-.28.56-.75.22-.48.31-1.11.09-.63.09-1.32"></path><rect width="9.33" height="19.46" x="-4.67" y="-9.73" fill="none" rx="0" ry="0" transform="translate(245.83 315.56)"></rect><path fill="#fe4d01" d="m266.255 323.19-.77-5.01h-2.86l-.69 5.01h1.53v1.6h-4.59v-1.6h1.34l2.61-16.27h-1.91v-1.59h4.15l2.93 17.86h1.3v1.6h-4.59v-1.6zm-2.24-14.98-1.19 8.46h2.43z"></path><rect width="10.42" height="19.46" x="-5.21" y="-9.73" fill="none" rx="0" ry="0" transform="translate(264.58 315.56)"></rect><path fill="#fe4d01" d="M277.645 306.92v-1.59h5.45q1.07 0 1.94.47.88.47 1.52 1.59.64 1.13.98 3 .35 1.87.35 4.66 0 2.8-.35 4.68-.34 1.87-.97 3-.63 1.12-1.51 1.59t-1.96.47h-5.45v-1.6h1.73v-16.27zm8.4 8.13q0-2.38-.19-3.95-.19-1.58-.57-2.5-.37-.93-.91-1.31-.54-.37-1.22-.37h-2.01v16.27h2.01q.68 0 1.22-.38.54-.39.91-1.31.38-.93.57-2.5.19-1.57.19-3.95"></path><rect width="10.24" height="19.46" x="-5.12" y="-9.73" fill="none" rx="0" ry="0" transform="translate(283.26 315.56)"></rect><path fill="#fe4d01" d="M296.735 306.92v-1.59h5.24v1.59h-1.75v6.8h4.85v-6.8h-1.73v-1.59h5.24v1.59h-1.74v16.27h1.74v1.6h-5.24v-1.6h1.73v-7.83h-4.85v7.83h1.75v1.6h-5.24v-1.6h1.72v-16.27z"></path><rect width="11.85" height="19.46" x="-5.92" y="-9.73" fill="none" rx="0" ry="0" transform="translate(303.16 315.56)"></rect><path fill="#fe4d01" d="m324.315 323.19-.77-5.01h-2.86l-.69 5.01h1.53v1.6h-4.59v-1.6h1.34l2.61-16.27h-1.91v-1.59h4.15l2.93 17.86h1.3v1.6h-4.59v-1.6zm-2.24-14.98-1.19 8.46h2.44z"></path><rect width="10.42" height="19.46" x="-5.21" y="-9.73" fill="none" rx="0" ry="0" transform="translate(322.64 315.56)"></rect><path fill="#fe4d01" d="M335.495 306.92v-1.59h5.25v1.59h-1.74v12.47q0 .98.06 1.76.05.78.27 1.32.21.55.65.84.44.29 1.2.29.77 0 1.19-.29.43-.29.64-.84.21-.54.26-1.32.05-.78.05-1.76v-12.47h-1.74v-1.59h5.25v1.59h-1.74v12.7q0 1.53-.2 2.58-.21 1.06-.67 1.72-.46.66-1.21.95-.75.3-1.83.3-1.09 0-1.84-.3-.75-.29-1.22-.95-.46-.66-.68-1.72-.21-1.05-.21-2.58v-12.7z"></path><rect width="11.34" height="19.84" x="-5.67" y="-9.92" fill="none" rx="0" ry="0" transform="translate(341.67 315.75)"></rect><path fill="#fe4d01" d="M356.815 311.45h-1.54v-6.12h9.54v6.12h-1.54v-4.56h-2.35v16.3h2.04v1.6h-5.84v-1.6h2.03v-16.3h-2.34z"></path><rect width="9.54" height="19.46" x="-4.77" y="-9.73" fill="none" rx="0" ry="0" transform="translate(360.55 315.56)"></rect><path fill="#fe4d01" d="M373.465 306.92v-1.59h5.24v1.59h-1.74v16.27h1.74v1.6h-5.24v-1.6h1.73v-16.27z"></path><rect width="5.24" height="19.46" x="-2.62" y="-9.73" fill="none" rx="0" ry="0" transform="translate(376.58 315.56)"></rect><path fill="#fe4d01" d="M386.775 306.92v-1.59h5.25v1.59h-1.6l2.15 7.57 2.11-7.57h-1.6v-1.59h5.26v1.59h-1.77l-3.13 9.63v6.64h2.02v1.6h-5.82v-1.6h2.03v-6.64l-3.13-9.63z"></path><rect width="11.57" height="19.46" x="-5.79" y="-9.73" fill="none" rx="0" ry="0" transform="translate(393.06 315.56)"></rect><path fill="#fe4d01" d="m413.715 323.19-.76-5.01h-2.86l-.7 5.01h1.53v1.6h-4.59v-1.6h1.35l2.6-16.27h-1.91v-1.59h4.15l2.93 17.86h1.31v1.6h-4.59v-1.6zm-2.24-14.98-1.19 8.46h2.44z"></path><rect width="10.43" height="19.46" x="-5.21" y="-9.73" fill="none" rx="0" ry="0" transform="translate(412.05 315.56)"></rect></svg></svg>